<?xml version="1.0" encoding="UTF-8"?>
<!DOCTYPE svg PUBLIC "-//W3C//DTD SVG 1.1//EN" "http://www.w3.org/Graphics/SVG/1.1/DTD/svg11.dtd">
<svg xmlns="http://www.w3.org/2000/svg" xmlns:xlink="http://www.w3.org/1999/xlink" version="1.1" width="24" height="24" viewBox="0 0 24 24">
    <path d="M17.1,15.3l-0.6-1l-1.7,1.1l0.6,1c0.1,0.2,0.3,0.4,0.4,0.5c0.6,0.6,1.5,0.9,2.4,0.9c1.1-0.1,2.1-0.8,2.5-1.8
	c1.2-2.8,1.1-6.1-0.4-8.7c-0.5-0.8-1.3-1.4-2.2-1.5c-1-0.1-1.9,0.2-2.6,0.9l-2.7,2.7c-1.1-0.5-2.5-0.3-3.4,0.6
	C9.2,10,9.1,10.1,9,10.3l-3.8-1C5,9.2,4.7,9,4.6,8.7C4.5,8.5,4.4,8.2,4.6,7.8C5,7.3,5.4,6.8,5.8,6.3C7.1,5,8.7,4.3,10.5,4
	c0.4,0,0.7,0.1,0.9,0.4c0.1,0.1,0.3,0.6,0.1,1l-0.5,1l1.8,0.9l0.5-1c0.5-1,0.4-2.2-0.2-3.1c-0.6-0.9-1.7-1.4-2.8-1.3
	C8,2.3,6,3.3,4.4,4.9C3.8,5.5,3.4,6.1,2.9,6.8C2.5,7.6,2.4,8.5,2.7,9.4c0.2,0.4,0.4,0.7,0.7,1c0.4,0.4,0.8,0.6,1.4,0.8l3.8,1
	c0.1,0.7,0.3,1.4,0.9,1.9c0.5,0.5,1.2,0.8,1.9,0.9l1,3.8c0.1,0.3,0,0.6-0.2,0.9c-0.2,0.3-0.5,0.4-0.8,0.4c-2.5-0.1-4.8-1.3-6.2-3.3
	c-0.3-0.4-0.1-0.8-0.1-0.9c0.2-0.4,0.5-0.6,0.9-0.6L7,15.1l-0.1-2l-1.2,0.1c-1.1,0-2.1,0.7-2.6,1.7c-0.5,1-0.4,2.1,0.3,3
	c0.3,0.4,0.6,0.8,1,1.2c1.8,1.8,4.2,2.8,6.8,2.9c1,0,1.9-0.4,2.5-1.1c0.6-0.8,0.8-1.7,0.5-2.6l-1-3.7c0.1-0.1,0.3-0.2,0.4-0.3
	c0.9-0.9,1.1-2.3,0.6-3.4l2.7-2.7c0.2-0.2,0.5-0.3,0.9-0.3c0.3,0,0.6,0.2,0.7,0.5c1.2,2.1,1.3,4.8,0.3,7c-0.2,0.5-0.6,0.6-0.8,0.6
	C17.6,15.8,17.3,15.6,17.1,15.3z M10.8,12.7c-0.4-0.4-0.4-1,0-1.4c0.4-0.4,1-0.4,1.4,0c0.4,0.4,0.4,1,0,1.4
	C11.8,13.1,11.2,13.1,10.8,12.7z"/>
</svg>
