<?xml version="1.0" encoding="utf-8"?>
<!-- Generator: Adobe Illustrator 24.0.2, SVG Export Plug-In . SVG Version: 6.00 Build 0)  -->
<svg version="1.1" id="Layer_1" xmlns="http://www.w3.org/2000/svg" xmlns:xlink="http://www.w3.org/1999/xlink" x="0px" y="0px"
	 viewBox="0 0 24 24" style="enable-background:new 0 0 24 24;" xml:space="preserve">
<style type="text/css">
	.st0{fill:#FF0000;}
</style>
<path class="st0" d="M13,3h-2v10h2V3 M17.8,5.2l-1.4,1.4C18,7.9,19,9.9,19,12c0,3.9-3.1,7-7,7c-3.9,0-7-3.1-7-7
	c0-2.1,0.9-4.1,2.6-5.4L6.2,5.2c-3.8,3.2-4.3,8.9-1,12.7c3.2,3.8,8.9,4.2,12.7,1c2-1.7,3.2-4.2,3.2-6.9C21,9.4,19.8,6.9,17.8,5.2z"
	/>
</svg>
