<?xml version="1.0" encoding="UTF-8"?>
<!DOCTYPE svg PUBLIC "-//W3C//DTD SVG 1.1//EN" "http://www.w3.org/Graphics/SVG/1.1/DTD/svg11.dtd">
<svg xmlns="http://www.w3.org/2000/svg" xmlns:xlink="http://www.w3.org/1999/xlink" version="1.1" width="24" height="24" viewBox="0 0 24 24">
    <path d="M11,5.4V12h2V5.4l5.4,5.4l1.4-1.4l-7.1-7.1C12.5,2.1,12.3,2,12,2s-0.5,0.1-0.7,0.3L4.2,9.4l1.4,1.4L11,5.4z"/>
	<path d="M16.2,15v2h2.5c-1.7,1.9-4.1,3-6.7,3c-2.6,0-5-1.1-6.7-3h2.5v-2h-6v6h2v-2.7c2.1,2.3,5,3.7,8.2,3.7c3.1,0,6.1-1.4,8.2-3.7
		V21h2v-6H16.2z"/>
</svg>
